<svg xmlns="http://www.w3.org/2000/svg" xmlns:xlink="http://www.w3.org/1999/xlink" width="500" zoomAndPan="magnify" viewBox="0 0 375 374.999991" height="500" preserveAspectRatio="xMidYMid meet" version="1.0"><defs><g/><clipPath id="6d49af93ad"><path d="M 81.003906 88.839844 L 236 88.839844 L 236 277.839844 L 81.003906 277.839844 Z M 81.003906 88.839844 " clip-rule="nonzero"/></clipPath><clipPath id="8005daf06d"><path d="M 145 107 L 269.253906 107 L 269.253906 259 L 145 259 Z M 145 107 " clip-rule="nonzero"/></clipPath><clipPath id="941ae2bd23"><path d="M 81.003906 165.042969 L 277.007812 165.042969 L 277.007812 218.945312 L 81.003906 218.945312 Z M 81.003906 165.042969 " clip-rule="nonzero"/></clipPath></defs><rect x="-37.5" width="450" fill="#ffffff" y="-37.499999" height="449.999989" fill-opacity="1"/><rect x="-37.5" width="450" fill="#ffffff" y="-37.499999" height="449.999989" fill-opacity="1"/><g clip-path="url(#6d49af93ad)"><path fill="#163b6d" d="M 194.734375 266.6875 C 148.765625 266.6875 111.503906 229.371094 111.503906 183.339844 C 111.503906 137.304688 148.765625 99.988281 194.734375 99.988281 C 209.652344 99.988281 223.636719 103.9375 235.746094 110.820312 C 219.378906 97.125 198.308594 88.875 175.3125 88.875 C 123.21875 88.875 80.988281 131.167969 80.988281 183.339844 C 80.988281 235.507812 123.21875 277.800781 175.3125 277.800781 C 198.308594 277.800781 219.375 269.550781 235.746094 255.859375 C 223.636719 262.742188 209.652344 266.6875 194.734375 266.6875 " fill-opacity="1" fill-rule="nonzero"/></g><g clip-path="url(#8005daf06d)"><path fill="#4f4c4c" d="M 178.378906 249.902344 C 215.089844 249.902344 244.847656 220.101562 244.847656 183.339844 C 244.847656 146.578125 215.089844 116.777344 178.378906 116.777344 C 166.46875 116.777344 155.296875 119.929688 145.632812 125.425781 C 158.703125 114.492188 175.523438 107.902344 193.890625 107.902344 C 235.492188 107.902344 269.21875 141.675781 269.21875 183.339844 C 269.21875 225.003906 235.492188 258.777344 193.890625 258.777344 C 175.523438 258.777344 158.703125 252.1875 145.632812 241.253906 C 155.296875 246.746094 166.46875 249.902344 178.378906 249.902344 " fill-opacity="1" fill-rule="nonzero"/></g><g clip-path="url(#941ae2bd23)"><path fill="#ffffff" d="M 81.003906 165.042969 L 277.03125 165.042969 L 277.03125 218.945312 L 81.003906 218.945312 Z M 81.003906 165.042969 " fill-opacity="1" fill-rule="nonzero"/></g><g fill="#163b6d" fill-opacity="1"><g transform="translate(83.735113, 203.003262)"><g><path d="M 1.609375 -2.125 C 2.191406 -2.144531 2.632812 -2.210938 2.9375 -2.328125 C 3.238281 -2.453125 3.472656 -2.707031 3.640625 -3.09375 C 3.816406 -3.488281 3.90625 -4.101562 3.90625 -4.9375 L 3.90625 -17.3125 C 3.90625 -18.519531 3.945312 -19.488281 4.03125 -20.21875 L 1.609375 -20.125 L 1.609375 -22.609375 L 10.890625 -22.609375 L 10.890625 -20.46875 C 10.304688 -20.445312 9.863281 -20.378906 9.5625 -20.265625 C 9.257812 -20.148438 9.019531 -19.894531 8.84375 -19.5 C 8.675781 -19.113281 8.59375 -18.503906 8.59375 -17.671875 L 8.59375 -12.75 L 10.921875 -12.75 L 13.40625 -16.984375 C 14.4375 -18.796875 15.164062 -19.875 15.59375 -20.21875 L 15.59375 -20.25 C 15.125 -20.207031 14.71875 -20.179688 14.375 -20.171875 C 14.03125 -20.160156 13.757812 -20.144531 13.5625 -20.125 L 13.5625 -22.609375 L 21.484375 -22.609375 L 21.484375 -20.46875 C 20.554688 -20.425781 19.6875 -20.191406 18.875 -19.765625 C 18.070312 -19.335938 17.269531 -18.476562 16.46875 -17.1875 L 13.375 -12.203125 L 13.375 -12.171875 C 14.1875 -11.679688 14.863281 -11.054688 15.40625 -10.296875 L 18.734375 -5.625 C 20.328125 -3.363281 21.738281 -2.195312 22.96875 -2.125 L 22.96875 0 L 17.984375 0 C 17.753906 -0.0195312 17.285156 -0.398438 16.578125 -1.140625 C 15.878906 -1.890625 15.296875 -2.609375 14.828125 -3.296875 L 11.625 -7.9375 C 11.320312 -8.375 11 -8.804688 10.65625 -9.234375 C 10.3125 -9.671875 10.007812 -9.984375 9.75 -10.171875 L 8.59375 -10.171875 L 8.59375 -5.296875 C 8.59375 -4.085938 8.550781 -3.117188 8.46875 -2.390625 C 9.15625 -2.453125 9.960938 -2.484375 10.890625 -2.484375 L 10.890625 0 L 1.609375 0 Z M 1.609375 -2.125 "/></g></g></g><g fill="#163b6d" fill-opacity="1"><g transform="translate(106.722183, 203.003262)"><g><path d="M 0.125 -2.234375 C 0.6875 -2.234375 1.15625 -2.394531 1.53125 -2.71875 C 1.90625 -3.039062 2.203125 -3.429688 2.421875 -3.890625 C 2.640625 -4.359375 2.910156 -5.03125 3.234375 -5.90625 L 9.53125 -23.1875 L 11.78125 -23.1875 L 18.671875 -5.59375 C 18.835938 -5.15625 19.015625 -4.617188 19.203125 -3.984375 C 19.398438 -3.347656 19.523438 -2.816406 19.578125 -2.390625 C 20.285156 -2.453125 20.90625 -2.484375 21.4375 -2.484375 L 21.4375 0 L 12.75 0 L 12.75 -2.125 C 13.789062 -2.125 14.3125 -2.554688 14.3125 -3.421875 C 14.3125 -3.847656 14.191406 -4.363281 13.953125 -4.96875 L 13.3125 -6.75 L 6.296875 -6.625 L 5.78125 -5.109375 C 5.71875 -4.929688 5.570312 -4.539062 5.34375 -3.9375 C 5.113281 -3.332031 4.914062 -2.847656 4.75 -2.484375 C 5.4375 -2.546875 6.203125 -2.578125 7.046875 -2.578125 L 7.046875 0 L 0.125 0 Z M 12.5 -9.046875 L 11.015625 -13.078125 C 10.390625 -14.847656 9.976562 -16.320312 9.78125 -17.5 L 9.75 -17.5 C 9.40625 -15.945312 9.007812 -14.523438 8.5625 -13.234375 L 7.109375 -9.046875 Z M 12.5 -9.046875 "/></g></g></g><g fill="#163b6d" fill-opacity="1"><g transform="translate(128.28871, 203.003262)"><g><path d="M 5.8125 -2.125 C 6.394531 -2.144531 6.835938 -2.210938 7.140625 -2.328125 C 7.441406 -2.453125 7.675781 -2.707031 7.84375 -3.09375 C 8.019531 -3.488281 8.109375 -4.101562 8.109375 -4.9375 L 8.109375 -20.40625 L 6.625 -20.40625 C 5.351562 -20.382812 4.367188 -19.953125 3.671875 -19.109375 C 2.984375 -18.273438 2.640625 -17.007812 2.640625 -15.3125 L 0.515625 -15.3125 L 0.671875 -22.609375 L 20.25 -22.609375 L 20.4375 -15.3125 L 18.3125 -15.3125 C 18.3125 -17.007812 17.960938 -18.289062 17.265625 -19.15625 C 16.566406 -20.03125 15.59375 -20.457031 14.34375 -20.4375 L 12.796875 -20.4375 L 12.796875 -5.296875 C 12.796875 -3.847656 12.75 -2.878906 12.65625 -2.390625 C 13.363281 -2.453125 14.226562 -2.484375 15.25 -2.484375 L 15.25 0 L 5.8125 0 Z M 5.8125 -2.125 "/></g></g></g><g fill="#163b6d" fill-opacity="1"><g transform="translate(149.274095, 203.003262)"><g/></g></g><g fill="#163b6d" fill-opacity="1"><g transform="translate(157.765107, 203.003262)"><g><path d="M 12.140625 0.515625 C 9.859375 0.515625 7.894531 0.0078125 6.25 -1 C 4.601562 -2.007812 3.34375 -3.378906 2.46875 -5.109375 C 1.59375 -6.847656 1.15625 -8.804688 1.15625 -10.984375 C 1.15625 -13.023438 1.582031 -14.976562 2.4375 -16.84375 C 3.289062 -18.707031 4.5625 -20.21875 6.25 -21.375 C 7.9375 -22.539062 9.976562 -23.125 12.375 -23.125 C 13.300781 -23.125 14.347656 -22.984375 15.515625 -22.703125 C 16.691406 -22.421875 17.6875 -22.035156 18.5 -21.546875 L 18.53125 -21.546875 L 18.40625 -22.90625 L 20.890625 -22.90625 L 20.890625 -15.375 L 18.796875 -15.375 C 18.515625 -17.113281 17.832031 -18.445312 16.75 -19.375 C 15.675781 -20.300781 14.359375 -20.773438 12.796875 -20.796875 C 11.367188 -20.796875 10.160156 -20.367188 9.171875 -19.515625 C 8.179688 -18.671875 7.4375 -17.546875 6.9375 -16.140625 C 6.445312 -14.742188 6.203125 -13.238281 6.203125 -11.625 C 6.203125 -8.757812 6.789062 -6.441406 7.96875 -4.671875 C 9.15625 -2.910156 10.816406 -2.03125 12.953125 -2.03125 C 13.640625 -2.03125 14.429688 -2.101562 15.328125 -2.25 C 16.222656 -2.40625 16.945312 -2.625 17.5 -2.90625 L 17.5 -5.90625 C 17.5 -7.113281 17.546875 -8.082031 17.640625 -8.8125 C 17.078125 -8.769531 16.546875 -8.75 16.046875 -8.75 L 15.21875 -8.71875 L 15.21875 -11.203125 L 23.796875 -11.203125 L 23.796875 -9.078125 C 23.265625 -9.054688 22.847656 -8.976562 22.546875 -8.84375 C 22.242188 -8.71875 22.015625 -8.453125 21.859375 -8.046875 C 21.710938 -7.648438 21.640625 -7.054688 21.640625 -6.265625 L 21.640625 -1.09375 L 20.859375 -1.09375 C 20.367188 -1.09375 19.878906 -1.039062 19.390625 -0.9375 C 18.910156 -0.832031 18.289062 -0.660156 17.53125 -0.421875 C 16.414062 -0.0976562 15.476562 0.132812 14.71875 0.28125 C 13.96875 0.4375 13.109375 0.515625 12.140625 0.515625 Z M 12.140625 0.515625 "/></g></g></g><g fill="#163b6d" fill-opacity="1"><g transform="translate(182.108153, 203.003262)"><g><path d="M 1.609375 -2.125 C 2.191406 -2.144531 2.632812 -2.210938 2.9375 -2.328125 C 3.238281 -2.453125 3.472656 -2.707031 3.640625 -3.09375 C 3.816406 -3.488281 3.90625 -4.101562 3.90625 -4.9375 L 3.90625 -17.3125 C 3.90625 -18.519531 3.945312 -19.488281 4.03125 -20.21875 L 1.609375 -20.125 L 1.609375 -22.609375 L 10.78125 -22.671875 C 13.738281 -22.691406 16.019531 -22.175781 17.625 -21.125 C 19.226562 -20.070312 20.03125 -18.359375 20.03125 -15.984375 C 20.03125 -14.503906 19.550781 -13.1875 18.59375 -12.03125 C 17.632812 -10.875 16.21875 -10.03125 14.34375 -9.5 L 14.34375 -9.46875 C 14.726562 -9.3125 15.125 -9.046875 15.53125 -8.671875 C 15.945312 -8.296875 16.289062 -7.878906 16.5625 -7.421875 L 18.09375 -5.171875 C 18.820312 -4.023438 19.425781 -3.234375 19.90625 -2.796875 C 20.394531 -2.367188 20.992188 -2.144531 21.703125 -2.125 L 21.703125 0 L 16.375 0 C 16.007812 -0.257812 15.644531 -0.628906 15.28125 -1.109375 C 14.914062 -1.597656 14.492188 -2.238281 14.015625 -3.03125 L 11.625 -6.90625 C 11.082031 -7.769531 10.628906 -8.394531 10.265625 -8.78125 L 8.59375 -8.78125 L 8.59375 -5.328125 C 8.59375 -4.097656 8.550781 -3.117188 8.46875 -2.390625 C 9.15625 -2.453125 10.066406 -2.484375 11.203125 -2.484375 L 11.203125 0 L 1.609375 0 Z M 10.140625 -11.109375 C 11.910156 -11.109375 13.1875 -11.5 13.96875 -12.28125 C 14.75 -13.070312 15.140625 -14.304688 15.140625 -15.984375 C 15.140625 -17.773438 14.679688 -18.957031 13.765625 -19.53125 C 12.859375 -20.113281 11.851562 -20.40625 10.75 -20.40625 C 10 -20.40625 9.453125 -20.242188 9.109375 -19.921875 C 8.765625 -19.597656 8.59375 -18.910156 8.59375 -17.859375 L 8.59375 -11.234375 C 9.238281 -11.148438 9.753906 -11.109375 10.140625 -11.109375 Z M 10.140625 -11.109375 "/></g></g></g><g fill="#163b6d" fill-opacity="1"><g transform="translate(204.255811, 203.003262)"><g><path d="M 12.375 0.515625 C 9.789062 0.515625 7.65625 -0.0507812 5.96875 -1.1875 C 4.289062 -2.332031 3.0625 -3.796875 2.28125 -5.578125 C 1.507812 -7.367188 1.125 -9.273438 1.125 -11.296875 C 1.125 -13.210938 1.554688 -15.078125 2.421875 -16.890625 C 3.285156 -18.703125 4.570312 -20.191406 6.28125 -21.359375 C 7.988281 -22.535156 10.050781 -23.125 12.46875 -23.125 C 14.945312 -23.125 17.03125 -22.535156 18.71875 -21.359375 C 20.40625 -20.191406 21.65625 -18.703125 22.46875 -16.890625 C 23.289062 -15.078125 23.703125 -13.210938 23.703125 -11.296875 C 23.703125 -9.429688 23.269531 -7.585938 22.40625 -5.765625 C 21.550781 -3.941406 20.265625 -2.4375 18.546875 -1.25 C 16.835938 -0.0703125 14.78125 0.515625 12.375 0.515625 Z M 12.6875 -1.84375 C 14.09375 -1.84375 15.234375 -2.28125 16.109375 -3.15625 C 16.992188 -4.039062 17.628906 -5.160156 18.015625 -6.515625 C 18.410156 -7.878906 18.609375 -9.289062 18.609375 -10.75 C 18.609375 -13.8125 18.066406 -16.242188 16.984375 -18.046875 C 15.910156 -19.859375 14.316406 -20.765625 12.203125 -20.765625 C 10.785156 -20.765625 9.625 -20.3125 8.71875 -19.40625 C 7.8125 -18.5 7.164062 -17.359375 6.78125 -15.984375 C 6.394531 -14.609375 6.203125 -13.175781 6.203125 -11.6875 C 6.203125 -10.1875 6.414062 -8.679688 6.84375 -7.171875 C 7.28125 -5.660156 7.988281 -4.394531 8.96875 -3.375 C 9.945312 -2.351562 11.1875 -1.84375 12.6875 -1.84375 Z M 12.6875 -1.84375 "/></g></g></g><g fill="#163b6d" fill-opacity="1"><g transform="translate(229.083137, 203.003262)"><g><path d="M 12.4375 0.515625 C 9.050781 0.515625 6.648438 -0.378906 5.234375 -2.171875 C 3.828125 -3.972656 3.125 -6.414062 3.125 -9.5 L 3.125 -17.3125 C 3.125 -18.519531 3.171875 -19.488281 3.265625 -20.21875 L 0.84375 -20.125 L 0.84375 -22.609375 L 10.109375 -22.609375 L 10.109375 -20.46875 C 9.546875 -20.445312 9.109375 -20.378906 8.796875 -20.265625 C 8.484375 -20.148438 8.238281 -19.894531 8.0625 -19.5 C 7.894531 -19.113281 7.8125 -18.503906 7.8125 -17.671875 L 7.8125 -8.78125 C 7.8125 -4.21875 9.617188 -1.9375 13.234375 -1.9375 C 14.941406 -1.9375 16.265625 -2.515625 17.203125 -3.671875 C 18.140625 -4.835938 18.609375 -6.5625 18.609375 -8.84375 L 18.609375 -17.3125 C 18.609375 -18.75 18.648438 -19.71875 18.734375 -20.21875 L 16.28125 -20.125 L 16.28125 -22.609375 L 23.765625 -22.609375 L 23.765625 -20.46875 C 23.191406 -20.445312 22.753906 -20.378906 22.453125 -20.265625 C 22.148438 -20.148438 21.910156 -19.894531 21.734375 -19.5 C 21.566406 -19.113281 21.484375 -18.503906 21.484375 -17.671875 L 21.484375 -9.59375 C 21.484375 -6.0625 20.664062 -3.492188 19.03125 -1.890625 C 17.40625 -0.285156 15.207031 0.515625 12.4375 0.515625 Z M 12.4375 0.515625 "/></g></g></g><g fill="#163b6d" fill-opacity="1"><g transform="translate(253.619898, 203.003262)"><g><path d="M 1.609375 -2.125 C 2.191406 -2.144531 2.632812 -2.210938 2.9375 -2.328125 C 3.238281 -2.453125 3.472656 -2.707031 3.640625 -3.09375 C 3.816406 -3.488281 3.90625 -4.101562 3.90625 -4.9375 L 3.90625 -17.3125 C 3.90625 -18.519531 3.945312 -19.488281 4.03125 -20.21875 L 1.609375 -20.125 L 1.609375 -22.609375 L 10.78125 -22.671875 C 13.6875 -22.691406 15.960938 -22.113281 17.609375 -20.9375 C 19.265625 -19.769531 20.09375 -17.988281 20.09375 -15.59375 C 20.09375 -14.375 19.742188 -13.203125 19.046875 -12.078125 C 18.359375 -10.960938 17.328125 -10.046875 15.953125 -9.328125 C 14.578125 -8.617188 12.898438 -8.234375 10.921875 -8.171875 L 9.65625 -8.140625 L 8.59375 -8.171875 L 8.59375 -5.328125 C 8.59375 -4.097656 8.550781 -3.117188 8.46875 -2.390625 C 9.15625 -2.453125 10.066406 -2.484375 11.203125 -2.484375 L 11.203125 0 L 1.609375 0 Z M 10.046875 -10.5 C 11.785156 -10.5 13.054688 -10.929688 13.859375 -11.796875 C 14.671875 -12.671875 15.078125 -13.945312 15.078125 -15.625 C 15.078125 -18.8125 13.632812 -20.40625 10.75 -20.40625 C 10 -20.40625 9.453125 -20.242188 9.109375 -19.921875 C 8.765625 -19.597656 8.59375 -18.910156 8.59375 -17.859375 L 8.59375 -10.59375 C 9.039062 -10.53125 9.523438 -10.5 10.046875 -10.5 Z M 10.046875 -10.5 "/></g></g></g><g fill="#4f4c4c" fill-opacity="1"><g transform="translate(135.911644, 223.904709)"><g><path d="M 5.265625 0 L 3.34375 -3.359375 L 2.28125 -3.359375 L 2.28125 0 L 0.90625 0 L 0.90625 -8.40625 L 3.8125 -8.40625 C 4.457031 -8.40625 5.003906 -8.289062 5.453125 -8.0625 C 5.898438 -7.84375 6.234375 -7.539062 6.453125 -7.15625 C 6.671875 -6.78125 6.78125 -6.359375 6.78125 -5.890625 C 6.78125 -5.335938 6.617188 -4.835938 6.296875 -4.390625 C 5.984375 -3.941406 5.5 -3.640625 4.84375 -3.484375 L 6.921875 0 Z M 2.28125 -4.46875 L 3.8125 -4.46875 C 4.320312 -4.46875 4.707031 -4.59375 4.96875 -4.84375 C 5.238281 -5.101562 5.375 -5.453125 5.375 -5.890625 C 5.375 -6.328125 5.242188 -6.664062 4.984375 -6.90625 C 4.722656 -7.15625 4.332031 -7.28125 3.8125 -7.28125 L 2.28125 -7.28125 Z M 2.28125 -4.46875 "/></g></g></g><g fill="#4f4c4c" fill-opacity="1"><g transform="translate(145.999356, 223.904709)"><g><path d="M 2.28125 -7.296875 L 2.28125 -4.828125 L 5.1875 -4.828125 L 5.1875 -3.703125 L 2.28125 -3.703125 L 2.28125 -1.125 L 5.546875 -1.125 L 5.546875 0 L 0.90625 0 L 0.90625 -8.421875 L 5.546875 -8.421875 L 5.546875 -7.296875 Z M 2.28125 -7.296875 "/></g></g></g><g fill="#4f4c4c" fill-opacity="1"><g transform="translate(154.780877, 223.904709)"><g><path d="M 0.453125 -4.21875 C 0.453125 -5.039062 0.640625 -5.773438 1.015625 -6.421875 C 1.398438 -7.078125 1.921875 -7.585938 2.578125 -7.953125 C 3.234375 -8.328125 3.953125 -8.515625 4.734375 -8.515625 C 5.628906 -8.515625 6.425781 -8.296875 7.125 -7.859375 C 7.820312 -7.421875 8.328125 -6.796875 8.640625 -5.984375 L 6.984375 -5.984375 C 6.765625 -6.429688 6.460938 -6.757812 6.078125 -6.96875 C 5.691406 -7.1875 5.242188 -7.296875 4.734375 -7.296875 C 4.179688 -7.296875 3.6875 -7.171875 3.25 -6.921875 C 2.8125 -6.679688 2.46875 -6.328125 2.21875 -5.859375 C 1.976562 -5.390625 1.859375 -4.84375 1.859375 -4.21875 C 1.859375 -3.601562 1.976562 -3.0625 2.21875 -2.59375 C 2.46875 -2.125 2.8125 -1.757812 3.25 -1.5 C 3.6875 -1.25 4.179688 -1.125 4.734375 -1.125 C 5.242188 -1.125 5.691406 -1.234375 6.078125 -1.453125 C 6.460938 -1.671875 6.765625 -2 6.984375 -2.4375 L 8.640625 -2.4375 C 8.328125 -1.632812 7.820312 -1.015625 7.125 -0.578125 C 6.425781 -0.140625 5.628906 0.078125 4.734375 0.078125 C 3.953125 0.078125 3.234375 -0.101562 2.578125 -0.46875 C 1.921875 -0.84375 1.398438 -1.351562 1.015625 -2 C 0.640625 -2.65625 0.453125 -3.394531 0.453125 -4.21875 Z M 0.453125 -4.21875 "/></g></g></g><g fill="#4f4c4c" fill-opacity="1"><g transform="translate(166.573901, 223.904709)"><g><path d="M 7.140625 -8.40625 L 4.359375 -3.046875 L 4.359375 0 L 2.96875 0 L 2.96875 -3.046875 L 0.1875 -8.40625 L 1.71875 -8.40625 L 3.671875 -4.28125 L 5.609375 -8.40625 Z M 7.140625 -8.40625 "/></g></g></g><g fill="#4f4c4c" fill-opacity="1"><g transform="translate(176.335074, 223.904709)"><g><path d="M 0.453125 -4.21875 C 0.453125 -5.039062 0.640625 -5.773438 1.015625 -6.421875 C 1.398438 -7.078125 1.921875 -7.585938 2.578125 -7.953125 C 3.234375 -8.328125 3.953125 -8.515625 4.734375 -8.515625 C 5.628906 -8.515625 6.425781 -8.296875 7.125 -7.859375 C 7.820312 -7.421875 8.328125 -6.796875 8.640625 -5.984375 L 6.984375 -5.984375 C 6.765625 -6.429688 6.460938 -6.757812 6.078125 -6.96875 C 5.691406 -7.1875 5.242188 -7.296875 4.734375 -7.296875 C 4.179688 -7.296875 3.6875 -7.171875 3.25 -6.921875 C 2.8125 -6.679688 2.46875 -6.328125 2.21875 -5.859375 C 1.976562 -5.390625 1.859375 -4.84375 1.859375 -4.21875 C 1.859375 -3.601562 1.976562 -3.0625 2.21875 -2.59375 C 2.46875 -2.125 2.8125 -1.757812 3.25 -1.5 C 3.6875 -1.25 4.179688 -1.125 4.734375 -1.125 C 5.242188 -1.125 5.691406 -1.234375 6.078125 -1.453125 C 6.460938 -1.671875 6.765625 -2 6.984375 -2.4375 L 8.640625 -2.4375 C 8.328125 -1.632812 7.820312 -1.015625 7.125 -0.578125 C 6.425781 -0.140625 5.628906 0.078125 4.734375 0.078125 C 3.953125 0.078125 3.234375 -0.101562 2.578125 -0.46875 C 1.921875 -0.84375 1.398438 -1.351562 1.015625 -2 C 0.640625 -2.65625 0.453125 -3.394531 0.453125 -4.21875 Z M 0.453125 -4.21875 "/></g></g></g><g fill="#4f4c4c" fill-opacity="1"><g transform="translate(188.128101, 223.904709)"><g><path d="M 2.28125 -1.109375 L 5.125 -1.109375 L 5.125 0 L 0.90625 0 L 0.90625 -8.40625 L 2.28125 -8.40625 Z M 2.28125 -1.109375 "/></g></g></g><g fill="#4f4c4c" fill-opacity="1"><g transform="translate(195.942063, 223.904709)"><g><path d="M 2.28125 -8.40625 L 2.28125 0 L 0.90625 0 L 0.90625 -8.40625 Z M 2.28125 -8.40625 "/></g></g></g><g fill="#4f4c4c" fill-opacity="1"><g transform="translate(201.579032, 223.904709)"><g><path d="M 7.8125 0 L 6.4375 0 L 2.28125 -6.28125 L 2.28125 0 L 0.90625 0 L 0.90625 -8.421875 L 2.28125 -8.421875 L 6.4375 -2.15625 L 6.4375 -8.421875 L 7.8125 -8.421875 Z M 7.8125 0 "/></g></g></g><g fill="#4f4c4c" fill-opacity="1"><g transform="translate(212.743154, 223.904709)"><g><path d="M 6.984375 -5.984375 C 6.765625 -6.398438 6.460938 -6.710938 6.078125 -6.921875 C 5.691406 -7.140625 5.242188 -7.25 4.734375 -7.25 C 4.179688 -7.25 3.6875 -7.125 3.25 -6.875 C 2.8125 -6.625 2.46875 -6.269531 2.21875 -5.8125 C 1.976562 -5.351562 1.859375 -4.820312 1.859375 -4.21875 C 1.859375 -3.613281 1.976562 -3.078125 2.21875 -2.609375 C 2.46875 -2.148438 2.8125 -1.796875 3.25 -1.546875 C 3.6875 -1.296875 4.179688 -1.171875 4.734375 -1.171875 C 5.484375 -1.171875 6.09375 -1.378906 6.5625 -1.796875 C 7.03125 -2.222656 7.316406 -2.789062 7.421875 -3.5 L 4.265625 -3.5 L 4.265625 -4.609375 L 8.90625 -4.609375 L 8.90625 -3.53125 C 8.8125 -2.875 8.578125 -2.269531 8.203125 -1.71875 C 7.828125 -1.175781 7.335938 -0.738281 6.734375 -0.40625 C 6.140625 -0.0820312 5.472656 0.078125 4.734375 0.078125 C 3.953125 0.078125 3.234375 -0.101562 2.578125 -0.46875 C 1.921875 -0.84375 1.398438 -1.351562 1.015625 -2 C 0.640625 -2.65625 0.453125 -3.394531 0.453125 -4.21875 C 0.453125 -5.039062 0.640625 -5.773438 1.015625 -6.421875 C 1.398438 -7.078125 1.921875 -7.585938 2.578125 -7.953125 C 3.234375 -8.328125 3.953125 -8.515625 4.734375 -8.515625 C 5.628906 -8.515625 6.425781 -8.296875 7.125 -7.859375 C 7.820312 -7.421875 8.328125 -6.796875 8.640625 -5.984375 Z M 6.984375 -5.984375 "/></g></g></g></svg>